<svg xmlns="http://www.w3.org/2000/svg" version="1.1" xmlns:xlink="http://www.w3.org/1999/xlink" xmlns:svgjs="http://svgjs.dev/svgjs" viewBox="0 0 14.564425952176194 14.570954326806856"><g transform="matrix(0.8571428571428572,0,0,0.8571428571428572,4.598732564795092,4.605742783842336)"><g><path d=" M 0.8214682696324753 -1.7360143816862978 Q 0.7565285500172517 -1.7049204463242993 0.6906945610585821 -1.7000076164076667 Q 0.6248605720999124 -1.6950947864910344 0.5654873280591902 -1.7148954908239828 Q 0.506114084018468 -1.7346961951569315 0.457634847399772 -1.7768982521786985 Q 0.40915561078107593 -1.8191003092004656 0.37892539584579965 -1.8822361477152665 Q 0.3456721594169957 -1.9516855700815472 0.34330655122955084 -2.0226197219260817 Q 0.340940943042106 -2.0935538737706163 0.3650927502046651 -2.1588910011239255 Q 0.38924455736722413 -2.224228128477235 0.4364263974768988 -2.276200466926309 Q 0.48360823758657345 -2.328172805375383 0.5503518383022199 -2.3601304611641036 Q 0.5981546874634263 -2.3830190524722417 0.634117649101416 -2.393586237065333 Q 0.6700806107394058 -2.404153421658425 0.7014383193176152 -2.4069719519002515 Q 0.7327960278958248 -2.4097904821420775 0.7640964062888003 -2.409255400413228 L 0.8420605654347321 -2.2603205492578726 L 0.8276295166313491 -2.2534107858440953 L 0.7108665714127946 -2.3305497165074693 Q 0.6644625244071601 -2.337157622491884 0.634889586867629 -2.334084942019888 Q 0.6053166493280977 -2.331012261547892 0.5719448489702745 -2.315033433653532 Q 0.505201248254628 -2.283075777864811 0.46757194359664156 -2.227361906782679 Q 0.42994263893865514 -2.1716480357005468 0.4260902135833431 -2.1032802156469446 Q 0.42223778822803104 -2.034912395593342 0.455491024656835 -1.9654629732270612 Q 0.4973814653528607 -1.8779747398565516 0.5587477393321763 -1.8308559493596004 Q 0.620114013311492 -1.7837371588626494 0.6886404332865409 -1.7760801512615556 Q 0.7571668532615898 -1.7684231436604618 0.823008513427025 -1.7999489392358214 Q 0.8491647893831566 -1.812472885423293 0.8733585843174189 -1.8279376934298242 Q 0.8975523792516811 -1.8434025014363553 0.9193900530742019 -1.8649458531259413 L 0.8455419565894555 -2.0191776872120974 L 0.7475629788728327 -2.0177216907816296 L 0.7406532154590553 -2.0321527395850123 L 0.9787655207148752 -2.1461638359123403 L 0.9856752841286527 -2.131732787108957 L 0.9415412950017399 -2.0618171879643774 L 1.0097752087127922 -1.9193105810309703 Q 0.9939453577538373 -1.88290432032464 0.964053268592137 -1.8480802911845626 Q 0.9341611794304367 -1.8132562620444852 0.897206446361002 -1.783920316452655 Q 0.8602517132915672 -1.7545843708608246 0.8214682696324753 -1.7360143816862978 M 1.2197548670113745 -1.923635520095831 L 1.2148481892535872 -1.9388645881363 L 1.2796786518139933 -2.001777314386271 L 1.1116249386097772 -2.523372894772335 L 1.0222610872604343 -2.5366055087247092 L 1.017354409502647 -2.551834576765178 L 1.4951664192723628 -2.705781591415756 L 1.5479132051685764 -2.542069109980714 L 1.5326841371281075 -2.5371624322229263 L 1.4349359671098822 -2.628591613877845 L 1.2112590302654933 -2.556524784310344 L 1.2839391945527183 -2.3309442139608962 L 1.4419407754725844 -2.38185099569794 L 1.464723371623196 -2.4774436382633493 L 1.479952439663665 -2.4823503160211366 L 1.5477259261931025 -2.2719988137121585 L 1.5324968581526335 -2.267092135954371 L 1.4588074802649784 -2.3295010743088276 L 1.3008058993451121 -2.278594292571784 L 1.379926078189433 -2.033025570419221 L 1.6293020673521132 -2.1133724187029888 L 1.6516418815173024 -2.259252275787731 L 1.6668709495577714 -2.264158953545518 L 1.7242177458519108 -2.086169220822536 L 1.2197548670113745 -1.923635520095831 M 1.8351699321327677 -2.1199100088643963 L 1.8323422720275835 -2.135658162353918 L 1.8885185774256346 -2.1792726405902205 L 2.0326083788014926 -2.830995840376346 L 2.086742656421725 -2.8407159219879166 L 2.4450793208477597 -2.2822538955903977 L 2.517386948821798 -2.2586613769294317 L 2.5202146089269823 -2.2429132234399094 L 2.2603700763498664 -2.19625683170437 L 2.257542416244682 -2.212004985193892 L 2.337971753956964 -2.262006201530735 L 2.2333253678846012 -2.4260950003013826 L 1.9961188059486736 -2.3835033699670456 L 1.956255760592625 -2.1924511843869228 L 2.0449423441361327 -2.173831573773905 L 2.047770004241317 -2.158083420284383 L 1.8351699321327677 -2.1199100088643963 M 2.009036694978291 -2.4417024089884802 L 2.2019515752249377 -2.476341245276987 L 2.062902504767277 -2.6962283890686614 L 2.009036694978291 -2.4417024089884802 M 2.626949485357547 -2.2499153741646984 L 2.6262767752597815 -2.265901226069566 L 2.7055233752837604 -2.3092714507016745 L 2.682483054435287 -2.856786878443395 L 2.5998729039224795 -2.893345913335626 L 2.5992001938247142 -2.9093317652404935 L 2.8769543706717915 -2.921020103189172 Q 2.981861523797486 -2.9254347632057587 3.0441369568910677 -2.884516913396576 Q 3.106412389984649 -2.8435990635873933 3.109607762949036 -2.7676662670392713 Q 3.1119622482912157 -2.7117157853722342 3.0758037584049 -2.6671561218957085 Q 3.0396452685185844 -2.622596458419183 2.97866711315276 -2.5970100446770936 L 3.179230371108799 -2.326203140115819 L 3.2477267680615154 -2.292052831120206 L 3.248399478159281 -2.2760669792153383 L 3.0875418433665494 -2.2692978338565712 L 2.882930128650589 -2.564956498875871 L 2.8000035218940873 -2.5614668152437114 L 2.8103884840283446 -2.3146852264623154 L 2.8870459844579366 -2.2768748095393683 L 2.8877186945557023 -2.2608889576345006 L 2.626949485357547 -2.2499153741646984 M 2.846295992079071 -2.8646812726895474 L 2.787348163179871 -2.8622006542040364 L 2.797775169695239 -2.6144199496785863 L 2.862717693058764 -2.617152834450759 Q 2.9246628691901266 -2.619759586079601 2.9636344812949056 -2.6569309924284954 Q 3.0026060933996845 -2.69410239877739 3.0002936524386152 -2.749053764700373 Q 2.997897122715325 -2.8060033621114644 2.957065608439096 -2.836813870739368 Q 2.9162340941628675 -2.867624379367272 2.846295992079071 -2.8646812726895474 M 3.6578812222251718 -2.230652645519026 Q 3.586201691555729 -2.2374382835147038 3.5272373051074726 -2.2671275261924935 Q 3.468272918659216 -2.2968167688702827 3.42757286827987 -2.3443641757303704 Q 3.3868728179005236 -2.3919115825904576 3.367046770812666 -2.4530522225680538 Q 3.3472207237248077 -2.51419286254565 3.3538178717761613 -2.583881295140942 Q 3.3610747346326506 -2.6605385709957625 3.395573805379848 -2.7225632766990535 Q 3.4300728761270456 -2.7845879824023445 3.4844212091306916 -2.8281598620924013 Q 3.538769542134338 -2.8717317417824577 3.6059777213065503 -2.8919878680744184 Q 3.673185900478762 -2.9122439943663787 3.7468565292223563 -2.905269866426376 Q 3.799620628187363 -2.9002748829017797 3.8358904727261867 -2.8908145247093247 Q 3.8721603172650108 -2.88135416651687 3.9004923191649565 -2.8676229004302534 Q 3.9288243210649023 -2.853891634343637 3.9553802644927485 -2.8373150886040372 L 3.945520403391953 -2.6694973805423636 L 3.929591618798743 -2.671005300096959 L 3.869221484788764 -2.797256822541709 Q 3.8328454416190327 -2.82681665142 3.805912518302538 -2.8394110010112974 Q 3.7789795949860436 -2.852005350602595 3.742144280614246 -2.8554924145725966 Q 3.668473651870652 -2.862466542512599 3.607527478666753 -2.8340840836374364 Q 3.546581305462854 -2.8057016247622735 3.508073488909627 -2.74907876661909 Q 3.4695656723564006 -2.6924559084759068 3.4623088094999113 -2.615798632621086 Q 3.453167047200178 -2.519230376024753 3.4815083604186325 -2.44723891844086 Q 3.5098496736370866 -2.375247460856967 3.564649350822089 -2.333396590132219 Q 3.6194490280070912 -2.2915457194074715 3.6921241077136093 -2.284665836439631 Q 3.720995029788802 -2.2819327322469274 3.749698034748024 -2.2827311721700694 Q 3.778401039707246 -2.283529612093211 3.8082144115040606 -2.290751998271263 L 3.8243303017437964 -2.4609908836111902 L 3.7395904813027183 -2.5101961966537254 L 3.7410984008573136 -2.5261249812469346 L 4.003923346645271 -2.5012443085961147 L 4.002415427090676 -2.485315524002905 L 3.928580215720247 -2.4481085144229326 L 3.91368951011862 -2.2908117665649885 Q 3.881372669730135 -2.267754840765889 3.8378160781879593 -2.2532954724108025 Q 3.7942594866457835 -2.2388361040557165 3.747474658732603 -2.232718107885884 Q 3.7006898308194227 -2.226600111716051 3.6578812222251718 -2.230652645519026 M 4.096020712612488 -2.1868369231860476 L 4.099682642231869 -2.2024122328607443 L 4.187687471508473 -2.2228119883493727 L 4.313108560972253 -2.7562663447077385 L 4.243413379792552 -2.8137431375925943 L 4.247075309411932 -2.829318447267291 L 4.51769631500979 -2.7656924201305553 Q 4.619909284749987 -2.741661007003371 4.668847553304744 -2.6854689624520067 Q 4.717785821859501 -2.6292769179006426 4.700391656167444 -2.5552941969458325 Q 4.687574902499612 -2.5007806130843937 4.640742106170122 -2.4676190511796747 Q 4.593909309840632 -2.4344574892749558 4.528290961023322 -2.4262579588926783 L 4.648419408817732 -2.1114069528112207 L 4.705172805835708 -2.060054718907329 L 4.701510876216327 -2.044479409232632 L 4.5447843226146905 -2.0813275760276477 L 4.427457269286557 -2.421201615279453 L 4.346660350349068 -2.440197875179989 L 4.290129311849881 -2.199754032076857 L 4.353754881300361 -2.1426770059446003 L 4.35009295168098 -2.1271016962699036 L 4.096020712612488 -2.1868369231860476 M 4.472984355739107 -2.7197050229637574 L 4.415550401313663 -2.733208388435223 L 4.358790492213266 -2.4917910884774224 L 4.422065187766721 -2.476914499398689 Q 4.482419512756171 -2.46272452212359 4.529969421713248 -2.4880129811152667 Q 4.577519330670325 -2.513301440106943 4.590107213736945 -2.5668415671137135 Q 4.603152838005988 -2.622328607829821 4.572139586785947 -2.6630063443543945 Q 4.541126335565906 -2.7036840808789675 4.472984355739107 -2.7197050229637574 M 4.770930068627171 -2.0131899215006457 L 4.776162841823123 -2.02831004334803 L 4.866735399280842 -2.0392923853372436 L 5.045957881242149 -2.5571565586101483 L 4.981549189764182 -2.6217748258578553 L 4.986781962960133 -2.636894947705239 L 5.239098996288354 -2.549573044997814 L 5.233866223092404 -2.53445292315043 L 5.144238673250145 -2.5231435328364693 L 4.965016191288838 -2.005279359563565 L 5.028479875151344 -1.9409881406406049 L 5.023247101955394 -1.925868018793221 L 4.770930068627171 -2.0131899215006457 M 5.157358599664094 -1.8827845498752502 L 5.164246980205708 -1.8972258176005543 L 5.254576849419096 -1.898456560421889 L 5.490503882969403 -2.393069980013546 L 5.434615916464089 -2.4640455758187305 L 5.441504297005704 -2.4784868435440344 L 5.715888383786477 -2.3476076132533534 Q 5.816977257863604 -2.29938894946205 5.871490589687106 -2.2301769804573985 Q 5.926003921510607 -2.1609650114527477 5.934185342371252 -2.0817228865903927 Q 5.942366763231895 -2.0024807617280382 5.905341717820716 -1.92485894770453 Q 5.871760862680343 -1.8544577675436735 5.818976653659733 -1.8065116803407701 Q 5.766192444639121 -1.7585655931378668 5.701752210221949 -1.736122193478725 Q 5.637311975804778 -1.7136787938195832 5.566568893890341 -1.7175084623753685 Q 5.4958258119759025 -1.7213381309311537 5.425424631815046 -1.7549189860715257 L 5.157358599664094 -1.8827845498752502 M 5.6678399363882255 -2.3095898976115965 L 5.58570522620056 -2.3487675619420303 L 5.3489171450825514 -1.8523489838847105 L 5.44459054376269 -1.8067134627965125 Q 5.516796882389209 -1.7722715600884384 5.58266644541961 -1.7779681087087909 Q 5.6485360084500105 -1.783664657329143 5.702993177374619 -1.8258270428489012 Q 5.757450346299227 -1.867989428368659 5.793614344142704 -1.9438060839265043 Q 5.829347818202331 -2.018720160251518 5.827824308858823 -2.08869286149479 Q 5.826300799515313 -2.158665562738063 5.786332564579939 -2.2153999455773143 Q 5.746364329644566 -2.272134328416566 5.6678399363882255 -2.3095898976115965" fill="#343432" fill-rule="nonzero"></path></g><g><path d=" M -1.640757556270055 0.44239088825148287 L -1.5197124901463985 0.24952984509574438 L -2.0136806955413338 -0.06049862465970779 L -1.9801899657838002 -0.11385938758817299 L -1.4862217603888652 0.19616908216727913 L -1.3651766942652086 0.0033080390115405867 L -1.3179143042428536 0.032971256796784476 L -1.5934951662477 0.4720541060367267 L -1.640757556270055 0.44239088825148287 M -1.864446980908522 1.0255167904852331 L -2.4410916710957644 0.7501953396702642 L -2.414335079396845 0.694155221891504 L -2.1446927735628103 0.8228970833993487 L -1.9814387865302725 0.4809711473869135 L -2.251081092364307 0.35222928587906877 L -2.2239367239740986 0.29537699248032656 L -1.6472920337868564 0.5706984432952955 L -1.6744364021770646 0.6275507366940378 L -1.9310838980913865 0.5050133022468122 L -2.0943378851239247 0.8469392382592474 L -1.8376903892096026 0.969476672706473 L -1.864446980908522 1.0255167904852331 M -2.6192866108013946 1.4074761617074345 L -2.67206687130987 1.3893685914491838 L -2.532755403355265 0.9833011033436558 L -1.9283362910807895 1.1906619885591052 L -2.0650192407721 1.5890678259456612 L -2.117799501280575 1.5709602556874107 L -2.0015605825259994 1.2321450350039722 L -2.2194919807545426 1.157378293292486 L -2.3208359626837836 1.4527774932350819 L -2.371062339619268 1.435546095731263 L -2.269718357690027 1.1401468957886671 L -2.5004191737835244 1.0609992903050236 L -2.6192866108013946 1.4074761617074345 M -2.8412029065828 2.110446338446962 Q -2.8298318285928237 2.043911020116425 -2.793969224495428 1.9943440590702457 Q -2.7581066203980327 1.9447770980240662 -2.7057480027236114 1.9135511848232682 Q -2.65338938504919 1.8823252716224703 -2.592530266328136 1.870813096828078 Q -2.531671147607082 1.859300922033686 -2.4713457923207285 1.8696106994112645 Q -2.4083590243011535 1.880375319908442 -2.3549290098668836 1.912332886423334 Q -2.301498995432614 1.9442904529382259 -2.263597001737305 1.9923117385720022 Q -2.2256950080419955 2.0403330242057787 -2.208772926263832 2.0989210404573395 Q -2.191850844485668 2.1575090567089 -2.2026154649828458 2.220495824728475 Q -2.213986542972822 2.287031143059012 -2.250736284647958 2.3364464897319914 Q -2.287486026323094 2.3858618364049713 -2.340212405599786 2.4165683736302994 Q -2.3929387848764776 2.447274910855627 -2.4533543348086617 2.458862892836619 Q -2.5137698847408454 2.4704508748176113 -2.5732081024494584 2.4602927118132323 Q -2.6361948704690334 2.4495280913160546 -2.689624884903303 2.417570524801163 Q -2.7430548993375727 2.385612958286271 -2.7810327002194817 2.3380352414413648 Q -2.8190105011013906 2.2904575245964587 -2.835489014090684 2.231945315531498 Q -2.8519675270799776 2.173433106466537 -2.8412029065828 2.110446338446962 M -2.481958798444706 1.9317103298530989 Q -2.5334127779536546 1.9229166962075173 -2.583755311453565 1.9316609412184036 Q -2.6340978449534753 1.9404051862292897 -2.676220557491695 1.96516300496242 Q -2.718343270029914 1.9899208236955503 -2.7474314377847406 2.029232444072572 Q -2.7765196055395673 2.0685440644495934 -2.785313239185149 2.119998043958542 Q -2.79456171595033 2.174113436200712 -2.779293004818132 2.221005775237718 Q -2.7640242936859343 2.2678981142747237 -2.7315516425073523 2.304947971567757 Q -2.6990789913287707 2.3419978288607908 -2.654789758426119 2.366001867039703 Q -2.610500525523467 2.390005905218615 -2.56170795874774 2.3983446957445977 Q -2.5102539792387915 2.4071383293901794 -2.4603550145277513 2.3983182771926934 Q -2.4104560498167116 2.389498224995207 -2.367813961303022 2.3643726446598063 Q -2.3251718727893325 2.3392470643244057 -2.296603081009976 2.300303205549654 Q -2.268034289230619 2.261359346774903 -2.2592406555850375 2.2099053672659545 Q -2.2501437931930566 2.156677112601525 -2.264968935536384 2.1098605807511195 Q -2.2797940778797114 2.0630440489007134 -2.3122667290582934 2.02599419160768 Q -2.3447393802368754 1.9889443343146462 -2.3889528059529272 1.9644967273468639 Q -2.433166231668979 1.9400491203790815 -2.481958798444706 1.9317103298530989 M -2.3880351026202478 2.7083005351921248 L -2.910524297479051 2.6875773294603897 L -2.908027525704143 2.624626824055715 L -2.269529542313867 2.649951223486923 L -2.2715982960702195 2.702110213679368 L -2.8206010795941436 3.1000651655055558 L -2.2891189553918156 3.1211450529194207 L -2.2916157271667235 3.1840955583240955 L -2.9292144176226467 3.1588068270611003 L -2.9268959866888036 3.1003527863281874 L -2.3880351026202478 2.7083005351921248 M -2.9187092893348736 3.4032997384447574 L -2.2811243826205905 3.36079695347555 L -2.2769339672010913 3.4236574372361135 L -2.858842445441733 3.4624487114051927 L -2.8342985836989514 3.8306315448599197 L -2.889975012172593 3.8343430556600477 L -2.9187092893348736 3.4032997384447574 M -2.246168717683578 3.8022620519193273 L -2.552394655036824 4.063071475238589 L -2.1794821499844055 4.216326372633517 L -2.168606229072094 4.283856176011797 L -2.604253210093127 4.1033293970363225 L -2.8388304218282046 4.141108911784352 L -2.8488477174053335 4.078910408672778 L -2.6124934055813536 4.040844685479688 L -2.2571877428184197 3.7338436984965964 L -2.246168717683578 3.8022620519193273 M -2.399687350281362 4.654813413255054 Q -2.344068521804447 4.6366806826593745 -2.284312164601216 4.638498036174768 Q -2.224555807397986 4.640315389690162 -2.168493083056826 4.662742681979852 Q -2.1124303587156668 4.685169974269542 -2.068757492622225 4.730569019052271 Q -2.0250846265287827 4.775968063835 -2.002767419641792 4.844422006575819 Q -1.9762657364634908 4.925711063580541 -1.9946574245179125 4.995604059012908 Q -2.013049112572334 5.065497054445274 -2.0623080811472336 5.111848257395543 L -2.106744086546888 5.0742709846882015 Q -2.0729435921666663 5.041479117104109 -2.0591763273625685 5.0038589772875985 Q -2.0454090625584707 4.966238837471088 -2.046160092047799 4.9290921222097595 Q -2.0469111215371285 4.891945406948432 -2.0577907598945364 4.858574109862283 Q -2.0756445254041287 4.803810955669628 -2.1111335088710463 4.768996525436105 Q -2.146622492337964 4.7341820952025815 -2.1923339798029513 4.7173730228385775 Q -2.238045467267938 4.7005639504745735 -2.287710773655086 4.700663154661737 Q -2.3373760800422336 4.700762358848901 -2.383582491392286 4.71582647349762 Q -2.43406727416364 4.732285413576776 -2.4746943837919444 4.7644630139106985 Q -2.5153214934202492 4.796640614244622 -2.5407892331179034 4.839021939550617 Q -2.566256972815557 4.881403264856611 -2.5736911861046945 4.929738112252373 Q -2.5811253993938323 4.978072959648135 -2.5652243894868514 5.026846393850969 Q -2.554065786043356 5.061073365221378 -2.530369812448043 5.093106173955085 Q -2.5066738388527297 5.1251389826887905 -2.4716770589669936 5.148281106567755 Q -2.436680279081257 5.171423230446719 -2.391182030111364 5.177415670740425 L -2.400672283646103 5.23541373181014 Q -2.4521602526058177 5.231374047119046 -2.4966525950834657 5.202334738228308 Q -2.541144937561114 5.173295429337571 -2.5731642763259956 5.130250168912529 Q -2.605183615090877 5.087204908487485 -2.620247729739596 5.040998497137433 Q -2.6406121810239744 4.978534274386436 -2.6306753113211077 4.917550742834809 Q -2.6207384416182404 4.856567211283183 -2.5882294880254673 4.803844038614015 Q -2.555720534432693 4.751120865944847 -2.5063690308797453 4.712312469983878 Q -2.4570175273267973 4.673504074022909 -2.399687350281362 4.654813413255054 M -1.8010398481969276 5.368330045150548 L -1.7788786074254461 5.416584468859348 L -2.2487612312502128 5.924542705161854 L -2.2765566857771553 5.864020207628783 L -2.129545704211437 5.705389657925758 L -2.249366650077582 5.444488621262922 L -2.4651150394599295 5.453448670309838 L -2.493286108237236 5.392108301188481 L -1.8010398481969276 5.368330045150548 M -2.090572594861601 5.671644928743176 L -1.8572125051757185 5.422848689740661 L -2.1987494989664595 5.436097911317168 L -2.090572594861601 5.671644928743176 M -2.159972207888503 6.082575852428712 L -1.6132106795632892 5.7518602175647455 L -1.4734716789165427 5.982886215448638 Q -1.4520450321507083 6.018310201790835 -1.4489764052681005 6.056423631563756 Q -1.4459077783854923 6.094537061336676 -1.457660389761473 6.131622922872377 Q -1.469413001137454 6.168708784408078 -1.492611575825418 6.199044096050567 Q -1.5158101505133819 6.229379407693056 -1.547383703557514 6.248477071114778 Q -1.5866581231977759 6.272232701224725 -1.6303950579223985 6.2781768614592846 Q -1.6741319926470208 6.284121021693843 -1.7145404608382215 6.27122264201108 Q -1.754948929029422 6.2583242623283155 -1.7850080357290312 6.226018069355118 L -1.914963160087874 6.487641435385138 L -1.9517610969248507 6.426804589275712 L -1.8277864357996063 6.176161389888853 L -1.9256037362523288 6.014443191370129 L -2.127366441070929 6.13648191860162 L -2.159972207888503 6.082575852428712 M -1.8778583633563242 5.985563797903134 L -1.769793536189507 6.164223902933345 Q -1.7502300760989624 6.19656754263709 -1.718078386194367 6.2097269057021744 Q -1.6859266962897712 6.22288626876726 -1.6491299031843023 6.218510366899837 Q -1.6123331100788332 6.214134465032415 -1.5799894703750883 6.19457100494187 Q -1.5468757440117302 6.174541748182503 -1.527850615977895 6.142523479908029 Q -1.50882548794406 6.110505211633555 -1.5066369298394988 6.074996970147628 Q -1.5044483717349377 6.039488728661699 -1.5230802384878372 6.00868526227718 L -1.6283502856417196 5.834645677204648 L -1.8778583633563242 5.985563797903134 M -1.3171241883203846 7.163373642348426 L -1.359908407641348 7.199194733581046 L -1.6354997063181205 6.870032272031055 L -1.1455513882877342 6.459823001463951 L -0.8751599254350517 6.782774850531867 L -0.917944144756015 6.818595941764487 L -1.1478924400879973 6.543948856446045 L -1.324549861800362 6.691855297664607 L -1.12406730280489 6.931308912251288 L -1.1647813179651614 6.965396724875879 L -1.3652638769606333 6.725943110289197 L -1.552272319476457 6.882515944547909 L -1.3171241883203846 7.163373642348426 M -0.7788881014235953 6.885761715761147 L -1.0015589467732402 7.448842655441469 L -0.44931370522805647 7.201341194454464 L -0.4018601925608487 7.246779659828453 L -1.034910098584012 7.5253150731676985 L -1.07651317818266 7.485478610374065 L -0.8263416140908031 6.840323250387159 L -0.7788881014235953 6.885761715761147 M -0.3296506205354306 8.037348215913253 L -0.36358270642802876 8.081645547062854 L -0.7043863670467272 7.820587402373026 L -0.31580925440568364 7.313311513401798 L 0.018564148465492147 7.569444032720119 L -0.015367937427106071 7.613741363869719 L -0.29972822448421704 7.395919264107557 L -0.4398349017181708 7.578824373370423 L -0.19191274189702123 7.768734596027383 L -0.22420295266578405 7.810888507927809 L -0.47212511248693356 7.620978285270849 L -0.6204411653400642 7.8146004907795845 L -0.3296506205354306 8.037348215913253 M 0.13133512408823345 7.784028412847792 L -0.13565491429466325 8.233629046081665 L -0.1898236652866961 8.2014615715777 L 0.1364464332535047 7.6520356686585105 L 0.18132911264690332 7.678688718961794 L 0.26989329916034543 8.3509450576208 L 0.5414786910438083 7.893606031388066 L 0.5956474420358413 7.925773505892029 L 0.26983687884569707 8.474425569511334 L 0.21953732435309514 8.444555771757653 L 0.13133512408823345 7.784028412847792 M 1.146910775092635 8.238140185768167 L 0.9390395249649839 8.145205620775547 L 0.7010094928890241 8.677618941260597 L 0.6434957082687254 8.65190582051165 L 0.8815257403446852 8.1194925000266 L 0.673654490217034 8.02655793503398 L 0.6964289685946722 7.975617154370287 L 1.169685253470273 8.187199405104474 L 1.146910775092635 8.238140185768167 M 1.3108389810383907 8.909920443779841 L 1.482685969527907 8.294461580372152 L 1.7375379495868655 8.36562075588753 Q 1.777412749187927 8.376754504437555 1.8061875005398922 8.402542993820079 Q 1.8349622518918571 8.428331483202603 1.8513676336517246 8.463280960299022 Q 1.8677730154115924 8.498230437395438 1.872082009452701 8.53634336263549 Q 1.8763910034938096 8.57445628787554 1.86646744500357 8.60999687012866 Q 1.8524292403100602 8.660273791364782 1.8178597742197697 8.698744260743673 Q 1.7832903081294793 8.737214730122565 1.7356702921457918 8.753819972599365 Q 1.6880502761621041 8.770425215076166 1.63430598104763 8.755418858334828 L 1.4349319830423224 8.699750115584703 L 1.3715180239095712 8.926863104616835 L 1.3108389810383907 8.909920443779841 M 1.4499383397836603 8.64600582047023 L 1.6467118073802032 8.700948449184482 Q 1.6831192331029114 8.71111404568668 1.7155582549351611 8.698679824256818 Q 1.7479972767674106 8.686245602826956 1.771689022192823 8.658287040655459 Q 1.7953807676182356 8.630328478483962 1.8057884021323893 8.593054209291665 Q 1.8164380746585003 8.55491309662978 1.8080566117091457 8.517999128015873 Q 1.7996751487597913 8.481085159401964 1.7767065532552486 8.454581789417212 Q 1.753737957750706 8.428078419432458 1.7199310624367625 8.418638936966133 L 1.5283586556577495 8.365148536323622 L 1.4499383397836603 8.64600582047023 M 1.9326206591520043 9.069614550815292 L 2.0401998338196528 8.43973541861783 L 2.1023005933320786 8.450341816120275 L 2.004115656452309 9.025217418463873 L 2.3678486764536606 9.087340603835333 L 2.358454438665781 9.142344133689194 L 1.9326206591520043 9.069614550815292 M 2.772441190396368 8.53580090298954 L 2.8254213244711464 8.539366768020429 L 3.047410737693662 9.19475363882051 L 2.9809610780066516 9.190281197934311 L 2.9117653102435628 8.985371886960708 L 2.6253133988901007 8.966092040437767 L 2.530180954183962 9.159941125976577 L 2.4628333261228033 9.155408246700024 L 2.772441190396368 8.53580090298954 M 2.900721927726655 8.93501661213686 L 2.793526325237651 8.611187022990007 L 2.6421070359718053 8.917610355714894 L 2.900721927726655 8.93501661213686 M 3.593123162892287 8.590191522931635 L 3.3655790174518683 8.598614816574237 L 3.3871533031451757 9.181415631773413 L 3.3241964249600797 9.183746187326703 L 3.302622139266772 8.600945372127526 L 3.075077993826353 8.60936866577013 L 3.073013787479154 8.553606859377616 L 3.591058956545088 8.53442971653912 L 3.593123162892287 8.590191522931635 M 3.790401210339723 9.153438453322504 L 3.7022112054601877 8.520553374465885 L 4.117597750174531 8.462670920559036 L 4.1252988491921805 8.517936941529614 L 3.7723094249284896 8.567124606222988 L 3.804728567567305 8.79977672676042 L 4.102451970860418 8.758290161084696 L 4.109656224780155 8.809990632315236 L 3.8119328214870416 8.851477197990961 L 3.8527983307903755 9.144743664109027 L 3.790401210339723 9.153438453322504 M 4.640155680836502 9.000460069331321 Q 4.574781921472653 9.017268447796761 4.514887912470545 9.004789758536445 Q 4.454993903468439 8.992311069276129 4.405099544762045 8.957282003212676 Q 4.3552051860556515 8.922252937149223 4.319830377578942 8.871410185205253 Q 4.2844555691022315 8.820567433261282 4.2692159726269 8.761295224771391 Q 4.253304041012951 8.699408065906947 4.260640088653957 8.637583840032223 Q 4.267976136294962 8.575759614157498 4.2963185754756354 8.521544199916807 Q 4.324661014656309 8.467328785676115 4.3712203767425 8.427944292507776 Q 4.417779738828693 8.388559799339438 4.4796668976931375 8.372647867725489 Q 4.545040657056987 8.355839489260049 4.605158777771966 8.369189828645217 Q 4.665276898486946 8.382540168030385 4.71484748798735 8.418117115012699 Q 4.764418077487754 8.453694061995014 4.799680830108028 8.504100988876559 Q 4.834943582728301 8.554507915758103 4.849959067490761 8.612908474123142 Q 4.865870999104709 8.674795632987587 4.858534951463704 8.73661985886231 Q 4.851198903822699 8.798444084737035 4.823292289704451 8.85254744312129 Q 4.795385675586203 8.906650801505547 4.7487142576435755 8.945599469611459 Q 4.702042839700947 8.984548137717372 4.640155680836502 9.000460069331321 M 4.330231481366494 8.745607404870315 Q 4.3432299607131 8.796163112111692 4.371781289723955 8.83853827124666 Q 4.400332618734811 8.880913430381629 4.4401410091888165 8.90924300061242 Q 4.479949399642823 8.937572570843212 4.52771516766349 8.948058580827754 Q 4.575480935684156 8.958544590812293 4.626036642925533 8.945546111465687 Q 4.6792073005414645 8.931875296980463 4.715767482918505 8.898778800722436 Q 4.752327665295545 8.86568230446441 4.772874846805834 8.820905320064126 Q 4.793422028316122 8.776128335663843 4.797233809781203 8.725896868215017 Q 4.801045591246283 8.67566540076619 4.788719447038295 8.627724643899368 Q 4.775720967691688 8.57716893665799 4.74728169453727 8.535229602585447 Q 4.71884242138285 8.493290268512904 4.678486150009982 8.464636929076123 Q 4.6381298786371135 8.435983589639342 4.590911991535309 8.425821348860792 Q 4.543694104433505 8.41565910808224 4.493138397192127 8.428657587428846 Q 4.440839389701047 8.442104290201199 4.404167151467571 8.474764961396799 Q 4.367494913234094 8.5074256325924 4.346947731723805 8.552202616992684 Q 4.326400550213517 8.596979601392967 4.322152943686011 8.647323124698229 Q 4.317905337158505 8.69766664800349 4.330231481366494 8.745607404870315 M 5.129822094322536 8.851529524996929 L 4.897933742416409 8.256089526130324 L 5.149528108134692 8.158108532367173 Q 5.188105910878162 8.143084779990156 5.226179993474145 8.146608163942314 Q 5.264254076070127 8.150131547894473 5.298770148471039 8.16807940977312 Q 5.33328622087195 8.186027271651769 5.35918609394621 8.21409151179358 Q 5.38508596702047 8.242155751935393 5.398476702834767 8.276540315250223 Q 5.415133471774503 8.319311357422333 5.413476987067288 8.36341927687468 Q 5.411820502360072 8.407527196327026 5.392173205105601 8.445119698379889 Q 5.37252590785113 8.48271220043275 5.335536842461643 8.506775638292131 L 5.570950882215259 8.679736182598868 L 5.504697699242778 8.705537844289832 L 5.2790734344397805 8.54035485142402 L 5.102957378436983 8.608941547058226 L 5.1885274463234685 8.82866729311886 L 5.129822094322536 8.851529524996929 M 5.082707973059264 8.556945378143114 L 5.2772742825480705 8.481173409632943 Q 5.31249749374863 8.4674560705061 5.330983702017678 8.438042466445507 Q 5.349469910286725 8.408628862384914 5.3514793001237 8.371627310356883 Q 5.353488689960676 8.334625758328851 5.339771350833835 8.299402547128292 Q 5.3257274083944495 8.263340688042005 5.297452753714911 8.239098804807552 Q 5.269178099035372 8.2148569215731 5.234573468216989 8.206601951801902 Q 5.199968837398605 8.198346982030706 5.166422921969501 8.21141111453246 L 4.97688849979506 8.285223463167368 L 5.082707973059264 8.556945378143114 M 6.2636047863512845 8.319923695931404 L 6.013483762390605 7.863801438885268 L 6.004973242836086 8.329337765133728 L 5.9702511333031625 8.348378119898902 L 5.572355143551868 8.105700491470078 L 5.822476167512547 8.561822748516214 L 5.767236447801078 8.592114222006261 L 5.45999435954488 8.031825636361354 L 5.516812356962391 8.000668692200161 L 5.945713192337252 8.264322486814892 L 5.955573559242065 7.7600678456220695 L 6.011602417806556 7.729343636796449 L 6.318844506062754 8.289632222441357 L 6.2636047863512845 8.319923695931404 M 6.3347311336269465 7.503106645408441 L 6.7114767252722265 7.64402732939716 L 6.664227760387436 7.2436296079784235 L 6.717965407670262 7.201311464534902 L 6.771860657315441 7.669791466312655 L 6.918860524013992 7.856459083189842 L 6.8693653225692834 7.895436320572034 L 6.721251820516956 7.707354555082141 L 6.280286412037767 7.545981606528852 L 6.3347311336269465 7.503106645408441 M 7.404505441696194 7.428309728278994 Q 7.356646786891724 7.475910139624975 7.298681583112363 7.4954816789312515 Q 7.240716379333001 7.5150532182375285 7.179953686056805 7.510115849928101 Q 7.119190992780609 7.505178481618674 7.062939869485636 7.479252170117544 Q 7.006688746190662 7.453325858616413 6.963531039903639 7.409934011593694 Q 6.918469317162777 7.364627818378796 6.893485848340057 7.307602571464958 Q 6.868502379517336 7.25057732455112 6.865485686459087 7.189474914099549 Q 6.862468993400839 7.128372503647977 6.882671204179055 7.070833098196822 Q 6.902873414957272 7.013293692745665 6.948179608172169 6.968231970004803 Q 6.996038262976639 6.9206315586588225 7.05463813890728 6.901698134749939 Q 7.113238014837921 6.882764710841055 7.1739989864910605 6.8883384729248185 Q 7.2347599581442 6.893912235008582 7.2906937453635345 6.919519488811016 Q 7.346627532582868 6.94512674261345 7.3891505667186115 6.987880474238776 Q 7.434212289459473 7.033186667453674 7.459195758282194 7.0902119143675115 Q 7.484179227104914 7.14723716128135 7.487514977861859 7.208022235657282 Q 7.490850728618804 7.268807310033213 7.470331181764948 7.326027657785673 Q 7.449811634911092 7.383248005538132 7.404505441696194 7.428309728278994 M 7.008199117721144 7.365506961004112 Q 7.045010102495369 7.402517654052902 7.091089255139302 7.424598056939109 Q 7.137168407783234 7.446678459825315 7.185841340970096 7.450946723522331 Q 7.2345142741569575 7.455214987219346 7.281012338636868 7.440067215118406 Q 7.32751040311678 7.4249194430174645 7.36452109616557 7.38810845824324 Q 7.403446135406538 7.349393457015175 7.418210592322462 7.302339915044588 Q 7.432975049238386 7.255286373074 7.428016464019053 7.206270279465649 Q 7.42305787879972 7.1572541858572984 7.400906331934966 7.112009971072437 Q 7.378754785070212 7.066765756287577 7.343847816749826 7.0316694094309655 Q 7.307036831975601 6.994658716382175 7.261275015407309 6.972897371194665 Q 7.215513198839017 6.951136026007155 7.166203871877818 6.946866040687083 Q 7.11689454491662 6.9425960553670105 7.071032874211045 6.957745549091008 Q 7.0251712035054705 6.972895042815006 6.98816051045668 7.009706027589231 Q 6.949873586613104 7.047786356666015 6.934791793621541 7.094520840937907 Q 6.919710000629977 7.141255325209798 6.924668585849311 7.190271418818148 Q 6.929627171068644 7.2392875124264995 6.9514596602347005 7.284849063287 Q 6.973292149400758 7.3304106141475005 7.008199117721144 7.365506961004112 M 7.917595292087324 6.848354535864851 Q 7.870986769283212 6.907877687680078 7.817546425508268 6.932331105789124 Q 7.764106081733324 6.956784523898169 7.7094559752808385 6.952856628185194 Q 7.654805868828353 6.948928732472219 7.600854513832659 6.92440091573023 Q 7.546903158836965 6.89987309898824 7.498717750224638 6.862142390051579 L 7.245035746059741 6.663501304767388 L 7.283321318363118 6.614607287204881 L 7.537003322528015 6.8132483724890704 Q 7.575976814787986 6.843765857658429 7.619914017864823 6.865024613167272 Q 7.663851220941661 6.886283368676115 7.7080392443838806 6.891163797373458 Q 7.7522272678261 6.8960442260708 7.794002175241029 6.878459584747357 Q 7.835777082655957 6.860874943423912 7.872398064859187 6.8141067527119485 Q 7.910128773795849 6.765921344099621 7.916750665385071 6.720239229965307 Q 7.923372556974294 6.674557115830991 7.907759996917928 6.633183326199313 Q 7.8921474368615625 6.591809536567634 7.861048964010918 6.5548845113630705 Q 7.829950491160272 6.517959486158507 7.791685607850483 6.487996864355863 L 7.538003603685585 6.289355779071673 L 7.576844039355678 6.239753152558984 L 7.8305260435205755 6.438394237843174 Q 7.880837278983447 6.477789536879983 7.91801904687778 6.525193398919398 Q 7.955200814772113 6.572597260958814 7.970225003812591 6.624941183659314 Q 7.98524919285307 6.677285106359815 7.974171640505537 6.7337668541549 Q 7.9630940881580035 6.790248601949986 7.917595292087324 6.848354535864851 M 7.769907087920901 6.244928137338503 L 7.698219667155142 6.178832042870273 L 7.686251162902119 6.1968130024093355 L 7.6098320848611065 6.145946859333988 L 7.642745471556919 6.096499220601569 L 7.719164549597932 6.147365363676916 L 7.7868624689460155 6.219455111324832 L 7.769907087920901 6.244928137338503 M 8.295267631452436 6.299349538329732 L 7.740785137115853 5.981748903137858 L 7.772097875796741 5.9270816149638295 L 8.278160772036326 6.216948110181201 L 8.461563955738676 5.8967539937333155 L 8.509983553835674 5.924488133707817 L 8.295267631452436 6.299349538329732 M 8.584332834006025 5.770005642539312 L 8.001578857940443 5.507862926867574 L 8.02742391441512 5.450408309508996 L 8.559289515105963 5.689659689446018 L 8.71066770302908 5.353139787774343 L 8.761556078403821 5.376031123509058 L 8.584332834006025 5.770005642539312 M 8.965304898603161 4.551237018290192 L 9.01896388924038 4.56654560162749 L 8.901186562596973 4.979373642497696 L 8.286704573041739 4.804065672022183 L 8.402259685974894 4.399026839470284 L 8.45591867661211 4.414335422807582 L 8.357647448092035 4.758791523994882 L 8.579207151368289 4.822001158419854 L 8.664885835530264 4.521683904369621 L 8.715948423394712 4.536251749803502 L 8.630269739232737 4.836569003853735 L 8.864811456372832 4.903482327795797 L 8.965304898603161 4.551237018290192 M 8.433471431842198 4.261548166840084 L 9.024484601600081 4.129844396306583 L 8.509710889497974 3.81166236455649 L 8.520688168410937 3.7468859078174317 L 9.106495898333133 4.114531747673403 L 9.096871982573825 4.171322065910385 L 8.422494152929238 4.326324623579142 L 8.433471431842198 4.261548166840084 M 9.134499561201372 3.2434492799855184 L 9.190206289343278 3.2466742512603712 L 9.1653948167932 3.675256659706981 L 8.527462930006841 3.638325537043341 L 8.551806261565408 3.2178295891334594 L 8.607512989707317 3.2210545604083127 L 8.586810754749388 3.5786558152547503 L 8.816825632238555 3.59197182567995 L 8.834875068244587 3.280193847208307 L 8.887886309540917 3.2832627714859903 L 8.869836873534885 3.595040749957633 L 9.113329185251931 3.6091369953686843 L 9.134499561201372 3.2434492799855184 M 9.189837642347518 3.042253530791369 L 8.551637722633803 3.074220114553275 L 8.538130715410462 2.8045581766460708 Q 8.536059640969551 2.7632100128336328 8.551427342788717 2.728197390241242 Q 8.566795044607883 2.6931847676488516 8.59472525552828 2.6661036244318055 Q 8.622655466448675 2.639022481214759 8.657463092899919 2.6233115251384804 Q 8.69227071935116 2.6076005690622015 8.729124517531812 2.6057546114083454 Q 8.774967046976037 2.6034584201803774 8.816294293131635 2.6189603950608444 Q 8.857621539287232 2.6344623699413114 8.887084935392405 2.664976641847252 Q 8.916548331497578 2.695490913753193 8.927698183916887 2.738186590244234 L 9.166155356349261 2.569446266327405 L 9.16971220158474 2.6404572433096356 L 8.941726343166776 2.8023651750530294 L 8.951181248223115 2.991128531588072 L 9.186686007328738 2.9793324119463547 L 9.189837642347518 3.042253530791369 M 8.895451114388958 2.9939199797475626 L 8.885005695469577 2.785381414432658 Q 8.883114714458308 2.7476287431256496 8.861044908472344 2.720799213429028 Q 8.83897510248638 2.6939696837324063 8.80450196317199 2.680377216487249 Q 8.7700288238576 2.6667847492420917 8.732276152550591 2.6686757302533595 Q 8.693624608117226 2.670611734622038 8.6616936944747 2.689783113131513 Q 8.629762780832174 2.7089544916409873 8.611001394604996 2.7391808937893516 Q 8.592240008377818 2.769407295937716 8.594040942674262 2.8053622209920097 L 8.604216221449178 3.00850754754877 L 8.895451114388958 2.9939199797475626 M 8.57837461355329 2.1417811503271853 L 9.089046294110336 2.0293585339324327 L 9.102591187651873 2.0908852424332816 L 8.478534572857548 2.228269162640294 L 8.467311661065988 2.1772898898824478 L 8.897481533096654 1.653146702196945 L 8.378020322753772 1.7675043033833455 L 8.364475429212236 1.7059775948824965 L 8.987653091027978 1.5687871731546488 L 9.00023049217369 1.62591911676258 L 8.57837461355329 2.1417811503271853 M 8.721192754564491 0.9399422499403747 L 8.773900362970702 0.9216242801812153 L 8.914830549666169 1.3271328158225517 L 8.311243421143425 1.5369031146774395 L 8.172972294574288 1.139045683482166 L 8.225679902980499 1.120727713723007 L 8.343269450789297 1.459076554782235 L 8.560900866143974 1.3834410667444164 L 8.458379325717713 1.0884484842128783 L 8.508536565975238 1.071016867829162 L 8.611058106401499 1.3660094503607003 L 8.841441362499618 1.2859421954456658 L 8.721192754564491 0.9399422499403747 M 8.462894479637031 0.3704250019355989 L 8.513410790640187 0.3467238981082991 L 8.695756379763122 0.7353735811487072 L 8.117263140856016 1.0067894475581078 L 7.93835803454672 0.6254727774052546 L 7.988874345549876 0.6017716735779549 L 8.141020141086413 0.9260537990498258 L 8.349603618776863 0.8281911767951686 L 8.21695389251762 0.545462791019442 L 8.265025865891591 0.522908514796689 L 8.397675592150835 0.8056369005724157 L 8.618480757987209 0.7020401402950247 L 8.462894479637031 0.3704250019355989 M 8.414939354252192 0.16365144194285924 L 7.870754996642729 0.498590816954481 L 7.75706430737822 0.31387471810394485 Q 7.703757054735526 0.22726509499145275 7.704546962021543 0.14698968750896474 Q 7.70533686930756 0.06671428002647667 7.749110312317589 -0.00038660064619255863 Q 7.792883755327616 -0.06748748131886184 7.867996525814556 -0.1137185499824378 Q 7.950773864718531 -0.16466707463209296 8.031667854397037 -0.17059876359003234 Q 8.112561844075543 -0.17653045254797184 8.182374483404002 -0.13865331049640478 Q 8.25218712273246 -0.10077616844483772 8.301248664987684 -0.021064656907676893 L 8.414939354252192 0.16365144194285924 M 7.901018717717111 -0.06006657106319491 Q 7.835869886172316 -0.019968195181521875 7.8001437209760365 0.03531040484025996 Q 7.764417555779756 0.09058900486204186 7.763980160132352 0.15426687531204697 Q 7.763542764484947 0.21794474576205208 7.804584631563835 0.28462649099025394 L 7.88525312892579 0.4156906109215472 L 8.334396838164023 0.13924769013730728 L 8.253728340802068 0.008183570206014013 Q 8.212214728124572 -0.059264631863891304 8.154018175381662 -0.0868539640203907 Q 8.09582162263875 -0.11444329617689003 8.030228129108625 -0.10683237596227108 Q 7.9646346355784985 -0.09922145574765207 7.901018717717111 -0.06006657106319491" fill="#343432" fill-rule="nonzero"></path></g><g transform="matrix(1,0,0,1,0,0)" clip-path="url(#SvgjsClipPath1004)"><path d=" M 0 0.7734989751857773 L 6.263348169161679 0.7734989751857773 L 6.263348169161679 5.4898491939759015 L 0 5.4898491939759015 Z" fill="#343432" transform="matrix(1,0,0,1,0,0)" fill-rule="nonzero" mask="url(#maskedMgText-3bfc6b84-0469-4d43-9eb2-9b6b4143ec78)"></path></g><g><path d=" M -1.7650674751003872 3.13167408458084 A 4.896741559681227 4.896741559681227 0 0 1 8.028415644262067 3.13167408458084 A 4.896741559681227 4.896741559681227 0 0 1 -1.7650674751003876 3.13167408458084 Z M -1.7150674751003874 3.131674084580839 A 4.846741559681226 4.846741559681226 0 0 0 7.978415644262066 3.131674084580839 A 4.846741559681226 4.846741559681226 0 0 0 -1.715067475100387 3.131674084580839 Z" fill="#343432" fill-rule="nonzero"></path></g><g transform="matrix(0.889363668751072,-0.4572004644634928,0.4572004644634928,0.889363668751072,0.4226399977136803,-0.4575203573811206)"><g clip-path="url(#SvgjsClipPath1005)"><path d=" M -0.7341251767962281 -1.1266005577881528 L -0.6210079053676567 -1.2397178292167241 L -0.7341251767962281 -1.3528351006452957 L -0.8472420216890852 -1.2397178292167241 L -0.7341251767962281 -1.1266005577881528 Z M -0.5897854910819424 -0.982260872073867 L -0.47666821965337103 -1.0953781435024386 L -0.5897854910819424 -1.2084954149310099 L -0.7029027625105139 -1.0953781435024386 L -0.5897854910819424 -0.982260872073867 Z M -0.8784644359747995 -0.982260872073867 L -0.7653475910819424 -1.0953781435024386 L -0.8784644359747995 -1.2084954149310099 L -0.9915817074033709 -1.0953781435024386 L -0.8784644359747995 -0.982260872073867 Z M -0.7341251767962281 -0.8379211863595813 L -0.6210079053676567 -0.9510384577881528 L -0.7341251767962281 -1.0641557292167243 L -0.8472420216890852 -0.9510384577881528 L -0.7341251767962281 -0.8379211863595813 Z" fill="#343432" transform="matrix(1,0,0,1,0,0)" fill-rule="nonzero"></path></g></g><g transform="matrix(-0.889363668751072,-0.4572004644634928,-0.4572004644634928,0.889363668751072,12.716728913178486,3.077276472350518)"><g clip-path="url(#SvgjsClipPath1006)"><path d=" M 6.997268608815051 -1.1266005577881535 L 7.110385880243623 -1.2397178292167248 L 6.997268608815051 -1.3528351006452963 L 6.884151763922194 -1.2397178292167248 L 6.997268608815051 -1.1266005577881535 Z M 7.141608294529337 -0.9822608720738677 L 7.254725565957909 -1.0953781435024392 L 7.141608294529337 -1.2084954149310105 L 7.028491023100766 -1.0953781435024392 L 7.141608294529337 -0.9822608720738677 Z M 6.852929349636479 -0.9822608720738677 L 6.966046194529337 -1.0953781435024392 L 6.852929349636479 -1.2084954149310105 L 6.739812078207908 -1.0953781435024392 L 6.852929349636479 -0.9822608720738677 Z M 6.997268608815051 -0.837921186359582 L 7.110385880243623 -0.9510384577881534 L 6.997268608815051 -1.0641557292167247 L 6.884151763922194 -0.9510384577881534 L 6.997268608815051 -0.837921186359582 Z" fill="#343432" transform="matrix(1,0,0,1,0,0)" fill-rule="nonzero"></path></g></g></g><defs><clipPath id="SvgjsClipPath1004"><path d=" M 0 0 h 6.263348169161679 v 6.263348169161679 h -6.263348169161679 Z"></path></clipPath><mask id="maskedMgText-3bfc6b84-0469-4d43-9eb2-9b6b4143ec78"><path d=" M 6.1626224507725365 3.605940002089419 C 6.151629065463274 3.636915666108966 6.140854921456475 3.667922650314579 6.132147909730049 3.6921957945159427 C 6.083758222257654 3.712867117319684 6.032768959341757 3.687309845489603 6.001292172345149 3.7312207463545217 L 5.886033887621256 3.729654737051208 C 5.880396254129325 3.657618309098774 5.874758620637396 3.585268679285677 5.869371548633996 3.5142344972873643 C 5.8732239315201475 3.509317228074959 5.876042748266112 3.5031158312338357 5.879644569663734 3.502332826582179 C 5.903197349585573 3.497697439044371 5.92753313415907 3.496381991229587 5.950584791103848 3.4898047521556688 C 5.967683729152286 3.482973450797285 5.983992289379637 3.474309856342962 5.999225040064774 3.463965598650992 C 6.032768959341755 3.439943015938158 6.056102497961131 3.412318611827703 6.0425095372083675 3.365557574030753 C 6.039331769132097 3.3560773034657334 6.0394531859789975 3.3458010230599324 6.042854059255095 3.3363984808030502 C 6.046235314245438 3.32702460887658 6.05270866476117 3.319082050820588 6.061207688289935 3.3138792670213983 C 6.089113974074985 3.3017270348276835 6.089896978726644 3.278738018255037 6.08504234988637 3.2534313079134862 C 6.087078161980678 3.223990333011187 6.088863412586456 3.1942674764342915 6.090930544866829 3.1648265015319925 C 6.089364535563515 3.1426204896110033 6.0881117281208645 3.120383157503947 6.086827600492148 3.098177145582958 C 6.086827600492148 3.06998897812331 6.094751607566915 3.0361631771717317 6.082474094628935 3.0149907313909297 C 6.065111638110066 2.9919160491622074 6.040015404228241 2.975870916024647 6.011784434677351 2.969795702897294 C 5.969515628025242 2.9615753958528552 5.926720326978794 2.9563424170014923 5.883716193852353 2.9541356098641565 C 5.8682786421835385 2.9435106657701064 5.852201883786542 2.933845783038275 5.835577067868483 2.9251957579389174 C 5.770274479920298 2.8952223398734915 5.769491475268641 2.894721216896431 5.774377424294979 2.799633131999218 L 5.8174113599500465 2.8437632741665997 C 5.846794357536263 2.8083651164469003 5.859903986469776 2.762225589810126 5.853523534484463 2.716665959109654 C 5.866834613562629 2.664987652100298 5.827903622282248 2.625837419517454 5.820480738184541 2.5709644535293386 L 5.8839980755269465 2.449536092150388 C 5.91600730568668 2.4482519645216705 5.951587037057969 2.457303498294824 5.972853443396971 2.4211286833882757 C 6.005896239696892 2.3766853393602307 6.003829107416518 2.324505909373815 6.004612112068175 2.2731094840390567 C 6.035932298134449 2.249588024303284 6.027131325849826 2.2136011305131333 6.0325183978532255 2.181905102214062 C 6.0477143710967525 2.1736321075197567 6.060305773822128 2.1612901468811048 6.068881133876172 2.1462627304706405 C 6.07746589038185 2.131182698730774 6.081725008527185 2.1140270141911746 6.081189967000219 2.0966828759277263 C 6.074017644391041 2.0287180721639078 6.106809879202432 1.9804223452497107 6.139069670850697 1.9292764814034826 C 6.155729190393847 1.9032101625876452 6.1498435936570015 1.8687509429832123 6.125476710097933 1.8496918886090763 L 6.094751607566916 1.7980449017857876 C 6.098102867476008 1.7864251127551993 6.107279681993427 1.7722057482811102 6.1037091807818715 1.7635926971128844 C 6.09718256536569 1.7486070391793647 6.087315827868682 1.7353121192729724 6.0748632894148304 1.7247243462046362 C 6.062470366199452 1.7141589102780386 6.047808798401787 1.7065923409321675 6.032017274876166 1.7026122948418456 C 6.0140708082601915 1.687891807390696 5.996938666481938 1.671636630822299 5.977989953911841 1.6587640343490597 C 5.948354921562704 1.6428680831851157 5.925438759546047 1.6168274953913224 5.913439050429245 1.5854121585818421 C 5.917291433315398 1.582562021649811 5.92393131276145 1.5802443278809066 5.924714317413107 1.5766111862972185 C 5.9485176588234765 1.4546817019412073 5.9485176588234765 1.4546817019412073 5.9095866675430955 1.3557412341578425 C 5.90062909432814 1.3332846607483229 5.8929556487419035 1.3105462056642065 5.8839980755269465 1.2880583120686206 C 5.9278463360197335 1.2443979726922323 5.919828368386767 1.1937845520091308 5.903698472562635 1.142106244999776 C 5.899344966699422 1.1284193236888136 5.886816892272913 1.1134482747491337 5.889886270507407 1.1023296086956058 C 5.9047320387028215 1.0490852923829372 5.923430189784389 0.9966553009079917 5.941094774725768 0.9394646411509723 L 5.821482984138662 0.8784842388799333 C 5.747206762790439 0.8458742227684704 5.669321746980868 0.822197514398714 5.589463045759691 0.8079511798586804 C 5.5561089390628755 0.7794342961104472 5.510599152581857 0.7697125007073294 5.468504487171733 0.782112026354003 L 5.321299612660239 0.782112026354003 C 5.268274537650034 0.7805773372367555 5.211428399939743 0.765073845133949 5.163539835444408 0.7797943325850987 C 5.078756091763 0.8056334860897761 4.992187097475814 0.800966778365901 4.907434673980472 0.8144031381883332 C 4.850633354069334 0.8098325107367548 4.793467239628175 0.8139301372660673 4.73789850680372 0.8265553703820483 C 4.679235798301587 0.8379245979241065 4.616000342633777 0.8265553703820483 4.555019940362738 0.8371415932724494 C 4.5475970562650305 0.8317232010829838 4.539673049190263 0.8211369781925826 4.532500726581086 0.8214815002393117 C 4.470758156915712 0.8190713627318045 4.411809243450302 0.8473091699575306 4.374991510853786 0.8969318284729696 C 4.3659447677685534 0.8953777974104724 4.356751228156305 0.8948524522897725 4.347586348045793 0.895365819169656 C 4.327102946358449 0.8695266656649785 4.3071206676481655 0.8907304316318472 4.286887827449352 0.895365819169656 C 4.210059411028778 0.895365819169656 4.133230994608203 0.8971823899614999 4.054617327581852 0.8987170790787475 C 4.015784439950826 0.8943436936331456 3.9767483150205636 0.9049766679611647 3.9454977993269473 0.9284399356556432 C 3.930246235713729 0.940844619220822 3.909214230802638 0.9433562673435378 3.891470478362622 0.9348918939852959 C 3.8402619741442607 0.9155360189963375 3.8013309828638806 0.9434109845953229 3.755728791951383 0.9622657366072208 C 3.7101266010388856 0.9811204886191188 3.651745774211348 0.9441939892469797 3.6074590311136343 0.9881048901118983 L 3.518572343057544 1.0139440436165756 C 3.4647955835817488 0.9927715978357734 3.4112693855944833 0.9754515349411229 3.3619714127261657 1.0250627096701037 L 3.3619714127261657 1.080436798635279 C 3.3619714127261657 1.08328693556731 3.354297967139928 1.0858551908247447 3.350195022765246 1.0884547662682456 C 3.249531944748236 1.0094026166369656 3.249531944748236 1.0094026166369656 3.164247078089767 1.0460785545205746 C 3.100892125274597 1.0435574748306842 3.0375928226037123 1.0523063313734013 2.9772968874601684 1.071917708025252 C 2.9122872537620843 1.0872624020239796 2.8463883004499975 1.098559365448909 2.7799797152426327 1.1057435089768295 L 2.536402628205205 1.147587277561374 C 2.46449122865896 1.1554818285482644 2.3930299028418345 1.167043593667302 2.3222978362561375 1.182227403350676 C 2.285634126811951 1.1939715688020374 2.24735466535329 1.1998899836051435 2.208856122324094 1.1997667075477896 C 2.093128034809204 1.193909832753396 1.991212149349543 1.2370377289666574 1.8917392384030514 1.2889665974645426 C 1.8315731609697354 1.2889665974645426 1.769841074233106 1.3199735816701554 1.7124624933596893 1.2795705416446597 C 1.6627886782585761 1.2899062030465307 1.6074772296655333 1.2777539708528158 1.5646938554990004 1.3164970410167987 C 1.5563776049133096 1.3168771902895728 1.54816948769763 1.3185357159045814 1.540358070925504 1.321414310229204 L 1.4802859540503877 1.321414310229204 C 1.4560570743301613 1.3181884066478546 1.4315074800501248 1.3181884066478546 1.4072786003298985 1.3214143102292042 C 1.3350542512610672 1.3400185007525718 1.2646464729840794 1.3294322778621706 1.1921715624267173 1.3245463288358317 C 1.1292049235027035 1.3191824087747355 1.067023017747116 1.3068825757274734 1.0067560609143649 1.2878703909522227 C 0.9791399582256016 1.2784079075363328 0.9509985479197222 1.27055424750671 0.9224734402100192 1.2643489312164502 C 0.910548003040295 1.2612740375093812 0.897948552021964 1.262130844117428 0.8865491867919995 1.2667919057296193 C 0.8750971160368981 1.2714572191841278 0.8654311720286465 1.2796529742058804 0.8589561028676105 1.2901880847211273 C 0.8333675108514632 1.3005237461229981 0.8300162509423716 1.3246402893940306 0.8256627450791595 1.347535345408478 C 0.8029585980716522 1.3523964645416706 0.7811773400157496 1.3608552055342542 0.7611431617826314 1.3725914942614987 C 0.7086303636603996 1.4167112430844666 0.6789580893024262 1.4822643926850982 0.6804623624759053 1.5508346731646736 C 0.683615995611397 1.60344970428928 0.6761602525508367 1.656161807727442 0.6585382322295125 1.705838274006672 C 0.6519774728160823 1.734020238019804 0.6493113137518567 1.7629686133139848 0.6506142251547447 1.7918748251307313 C 0.582033580823481 1.8279990892602327 0.5052822483618202 1.8457897762477617 0.4278024214792593 1.8435218119540198 C 0.4089781442656444 1.8424544984384927 0.3900970964267185 1.8440252835462536 0.37170796823455987 1.8481885196778949 C 0.31602067740872175 1.863441450292171 0.26070922881567893 1.8813252765360147 0.19669076849621137 1.9010256735717022 C 0.1792767450433621 1.917813293303226 0.1587933433560178 1.9526726603949904 0.12960292994224876 1.9627577603083315 C 0.061199643573502716 1.9859346979973753 0.037897425140193564 2.0443155248249134 0 2.0954613886711413 C 0.012026951449449985 2.1270008160398812 0.022550533967718556 2.1538422154986794 0.03279223481139071 2.1809654966320737 L 0.03279223481139071 2.2110955156278314 C 0.028095217449726873 2.2350886025049226 0.03950601604172732 2.2593555675105765 0.060980402271038736 2.271042351758683 C 0.06430104229857547 2.2802337337444047 0.06886392254583984 2.2889274432224482 0.07454204283773613 2.296881505263361 C 0.15168175416287055 2.372865770985112 0.2022145769330408 2.471734337274576 0.2186148987426042 2.5787631798598416 C 0.2186148987426042 2.5867811474928084 0.230391288703524 2.5934836673109913 0.23653004517251408 2.6006873101062347 L 0.23859717745288833 2.658316452468182 C 0.22885659958627658 2.688258550347542 0.2188654602311344 2.7182319684129674 0.20912488236452265 2.7482053864783933 C 0.18992560830589578 2.8081209024231786 0.16712451284964702 2.8670341724138435 0.1525293061427626 2.929048140825069 C 0.13854100301927108 2.971774006677591 0.14676265517867115 3.0186609144209102 0.17445343638915545 3.054078323601642 C 0.19905271137091818 3.084948629725605 0.21261406561582064 3.123162982418964 0.21297726525067473 3.162634088507353 C 0.21297726525067473 3.174786320701068 0.2286373582838126 3.1856231050799995 0.23681192684711072 3.1970862931802557 C 0.23602755807171105 3.2064659795152295 0.23602755807171105 3.2158947743049318 0.23681192684711072 3.2252744606399046 C 0.2272485266285751 3.2318759584252623 0.21994489209155565 3.2412569740431705 0.21589004255483824 3.2521471802847692 C 0.21181740157236528 3.2630623736169833 0.2111619775291942 3.2749583200005397 0.21401083139086197 3.286254862910943 L 0.18992560830589578 3.337901849734232 C 0.22625417045437834 3.4066829017953495 0.27289770547152137 3.4694974631058004 0.3282355499745684 3.5241629962703724 C 0.3635647198573282 3.5913447953825344 0.42044217775368486 3.647126046766572 0.4219768668709323 3.730876224307793 C 0.4219768668709323 3.7530822362287823 0.4555207861479136 3.7745365636841814 0.47318537108929304 3.7962101324420443 C 0.4818923828157178 3.8078612416586988 0.48828170077323807 3.8243982999016923 0.49880528329150664 3.830317815068218 C 0.5414584476092204 3.8549872300675725 0.5749069151080446 3.892888895902039 0.5940812893051173 3.9382784964386697 L 0.5484790983926198 3.9700684852959403 L 0.5049440397604965 4.00210903564174 C 0.48751731974589174 4.026380972583468 0.45726296971954783 4.037875898887812 0.42811562333992237 4.03129944905551 C 0.3892670008364574 4.030310113056195 0.35135868023863326 4.043327897050345 0.32131378885392237 4.067975386939118 C 0.28732107179247457 4.094354588066139 0.25538655243648134 4.1232841215024045 0.22578722135178064 4.154513061040238 C 0.2162560113857388 4.1708319298526675 0.20988103150408333 4.1887987481524664 0.20699510971201596 4.2074754956783105 C 0.17548700252934268 4.210325632610341 0.13962538948345693 4.202307664977374 0.1209585585879569 4.239766607512641 C 0.10479734257775863 4.281610376097185 0.11096741923281495 4.30898421871911 0.14833240120988167 4.358783314564489 C 0.15885598372815024 4.387723166489728 0.16934824606035281 4.416663018414965 0.18009106988108514 4.445853431828734 C 0.20571098208329874 4.492614469625684 0.27091960947328486 4.477361539011408 0.29866929432800493 4.523339572156701 C 0.3264189791827252 4.569317605301994 0.3863658153135767 4.558981943900124 0.4396101316262455 4.58507165889333 C 0.434223059622846 4.662589119407363 0.4938880140791013 4.686361140631666 0.5558706623042611 4.708034709389529 C 0.5814905745064745 4.717086243162683 0.6070791665226217 4.687895829748914 0.6028509414036743 4.654320590285866 C 0.6005320599136221 4.6447673541391765 0.5971820201044555 4.635494359933867 0.5928598020485323 4.626664865989344 C 0.6421050580486789 4.573955116877494 0.6740124131162055 4.507418607697625 0.6842834251759911 4.436018893403926 C 0.6865697987588293 4.419481835160931 0.7021985716059009 4.404510786221251 0.7114380264954523 4.388756732629915 C 0.7219302888276546 4.397808266403068 0.73138898501967 4.414595886134592 0.7427582125617279 4.414595886134592 C 0.8160161277707467 4.424931547536463 0.834213155875253 4.472444269799004 0.8293272068489138 4.5375589366307905 L 0.6848785087112504 4.6409155506495 C 0.7158854929168633 4.668821836434552 0.739688834327233 4.690244843703884 0.7617069251318248 4.7109161665076265 C 0.7861915877208372 4.692843266883685 0.8118700456861653 4.676446305338587 0.8385666617384656 4.661837434941772 C 0.8698868478047409 4.647618070467684 0.9000168668004982 4.69541267440482 0.9363796028234443 4.66622226099105 C 0.9395116214300719 4.654602471960462 0.9433013639440913 4.6404144276724395 0.9468718651556467 4.626978067850008 C 0.9681821559667212 4.617550973098313 0.9904132965126224 4.6103610149897465 1.013208019244019 4.605523740394609 C 1.03472498707155 4.603206046625704 1.057776644016329 4.631362893899286 1.0787611686807337 4.609908566443887 C 1.104381080882947 4.584069412939209 1.0856829298013806 4.5582615796205985 1.0787611686807337 4.5301047323470165 C 1.0768821524555752 4.516734065577262 1.0768821524555752 4.503166319649475 1.0787611686807337 4.48979565287972 L 1.1228286704759833 4.4786769868261915 C 1.1371733156943375 4.527755718392045 1.1371733156943375 4.527755718392045 1.1683995412024146 4.5068651542858404 L 1.2129681659747251 4.477674740872072 C 1.2125758884966222 4.491912906336069 1.210074387012635 4.506014197401921 1.2055452818770178 4.519518509456615 C 1.1875578001620624 4.548228562262538 1.1869668239066307 4.58454345012181 1.20401059275977 4.6138235897021715 C 1.208793962964951 4.627254202775877 1.2112204385105225 4.6414104094522255 1.211182915368947 4.655667358286715 C 1.1993562211239568 4.655040666836968 1.187530523730955 4.656919116964376 1.1764801492075136 4.6611797110343804 C 1.165410979917132 4.665460009393959 1.1553607727634736 4.672010781360356 1.1469765339330822 4.680410305279073 C 1.1299078231506112 4.697477854539642 1.120812958419303 4.720942605546417 1.1219203850800616 4.745055169319866 C 1.0817365863570299 4.760558661422674 1.0407384627962752 4.7747780258967625 1.0010557870503036 4.792317330093876 C 0.9613731113043323 4.809856634290991 0.9070952288514768 4.804219000799061 0.8829786855804445 4.854957702226428 C 0.9060303425252233 4.8660763682799555 0.9342185099848714 4.871494760469421 0.9475295890630385 4.888282380200945 C 0.965643557914166 4.914825938425591 0.9806799110702432 4.943343522258989 0.9923487753238793 4.973285365184816 C 1.0172481195395766 4.969321064321555 1.0426178776672435 4.969321064321555 1.067517221882941 4.973285365184816 C 1.1048251181677011 4.988228715995066 1.1475050566415594 4.977851188956771 1.1737866132058141 4.947446211680139 C 1.1965877086620629 4.926524327387868 1.2191382426297814 4.945911522562892 1.2416574564114335 4.951831037729418 L 1.3551304905295503 4.981021451143187 C 1.392244911018087 4.9590973208967934 1.4288895287156296 4.936358865812679 1.4662545106926965 4.915249060404008 C 1.486548300754301 4.900758558675344 1.5129368071227765 4.897920190978645 1.5358479641319605 4.907763535934169 C 1.6139605081812523 4.9449719169809025 1.663916204956962 4.907763535934167 1.7028471962373426 4.842398307613851 C 1.7051335698201808 4.838545924727699 1.7107712033121105 4.836729353935855 1.7148741476867926 4.83416109867842 C 1.7253811380009147 4.840322920086224 1.7337442224464892 4.849560575454211 1.7388340900274935 4.860626655904423 C 1.743963743450543 4.871715661801751 1.7456126479446874 4.8840988253538 1.7435634381235012 4.896143746903579 C 1.7412457443545968 4.923517589525504 1.7381763661201017 4.950922752333495 1.735608110862667 4.976730585652107 C 1.789666752013059 5.006453442229002 1.8406246947428895 5.032010714059083 1.8926162036129073 5.02170637284328 C 1.9722634367794463 5.006046279810141 2.0492171339442855 4.977012467326704 2.127705520226372 4.953741569079462 C 2.1310141060272207 4.981335816002367 2.1274084875486032 5.009319720612533 2.1172132578941705 5.035174052851778 C 2.1071059761324786 5.061097779185663 2.0906374155650953 5.08406113505856 2.0693246933988343 5.101948689545077 C 2.0152660522484425 5.145796950037862 1.941256452573833 5.1373404997999685 1.882092621094638 5.167564479353924 C 1.8774885537428956 5.2037392942604725 1.873135047879683 5.236468888699731 1.868781542016471 5.2709210933726345 C 1.8843576876545711 5.283976914851248 1.9015470973776871 5.294976873920847 1.9199274058626992 5.303650687811893 C 1.9378632332854904 5.311275243126728 1.958039354160235 5.31173481032443 1.9763037407819954 5.304934815440609 C 2.0392886349612755 5.265408740624969 2.0976694617888136 5.299516423251143 2.1576162979196654 5.310635089304672 C 2.161234307083872 5.357374849866637 2.1843853153990733 5.400424809336849 2.221384196750603 5.429213313751591 L 2.331505970959628 5.429213313751591 C 2.4044820044940503 5.427396742959747 2.475171664445635 5.430748002868839 2.540756134068416 5.471307643824666 C 2.584364663285574 5.493639295571363 2.6354599036693367 5.496182652402966 2.681070567645331 5.4782920453174455 C 2.7128292363165345 5.468895989497563 2.746404475779582 5.465106246983543 2.779165390404907 5.458904850142421 C 2.7930089126462008 5.4542694626046115 2.8088882469818026 5.442900235062554 2.8206646369427224 5.44637677571591 C 2.8700878905553053 5.460345578701469 2.9141553923505548 5.444560204924066 2.9620439568458905 5.434756986685321 C 3.028348790748196 5.421070065374359 3.092116689579133 5.387776707585909 3.163088231205314 5.400304782012418 C 3.1774328764236683 5.42611261533103 3.185012361451707 5.455334348930865 3.214296735423675 5.470305397870545 L 3.3308391477762864 5.447817504274959 C 3.3328277026894733 5.42016852208746 3.3431346034606184 5.3937680071884895 3.360405403422851 5.372085294366704 C 3.377586700490368 5.350487796388917 3.400946977906429 5.33464476446502 3.4273679612325485 5.326671024570604 C 3.4801424747542233 5.308849838698895 3.5172568952427596 5.244768738007294 3.5839688915639267 5.271892019140689 C 3.6210833120524635 5.2460841858220775 3.627817152056713 5.191054618903632 3.6802471435316586 5.18106347954849 C 3.6891159173082424 5.191091051953302 3.6993788653139528 5.199792934897507 3.710721684574145 5.206902633053167 C 3.7619615089785716 5.232741786557844 3.794471862115366 5.219806549712473 3.8131700131969324 5.167877681214587 C 3.817774080548675 5.1539401984150945 3.8164899529199574 5.135336007891727 3.8251969646463824 5.126315794304639 C 3.840029930776597 5.11463442945246 3.856409427461937 5.105063912727694 3.8738685337933747 5.097877065356462 C 3.908320738466278 5.088324408606248 3.9435246276047717 5.080055879484751 3.9763168624161627 5.068436090454162 C 3.9922311383568787 5.061323588042651 4.007410394133457 5.052669209317235 4.0216371716540635 5.042596936949485 C 4.072530544270382 5.047188957245568 4.123617411728533 5.036200420007402 4.168121681886033 5.011088829766813 C 4.256475926778998 5.0162566604677465 4.337657849062785 4.985249676262134 4.419372214509698 4.959410522757457 C 4.435739343463792 4.954885932418308 4.450918884614483 4.946836499681357 4.463846878723809 4.935826422649551 C 4.476805802888572 4.9247718501725055 4.4872317155158425 4.911055792986629 4.494415380324494 4.895611303740454 C 4.5036235150279795 4.894076614623206 4.513207491964259 4.893043048483019 4.522822789086606 4.892260043831362 C 4.585463161219158 4.903096828210294 4.641150452044996 4.87108759805056 4.700564845012721 4.862286625765936 C 4.7802279648537915 4.868638525566979 4.8603460590490215 4.85853181188806 4.9359360433007815 4.832595089375107 L 5.024039726705215 4.832595089375107 C 5.088926489527923 4.839399550059616 5.151897696092007 4.808078728961837 5.185620566621132 4.752227491929043 C 5.20577442935649 4.728069523231138 5.228725784602588 4.706390322810865 5.253992532803812 4.687645268260383 L 5.312655241305945 4.79413390088572 C 5.322459080180866 4.797075547251739 5.3326436281247 4.798553098248772 5.342879220859901 4.798518726934999 C 5.406396558202308 4.788433627021657 5.427443723238845 4.7184330111635315 5.483475536111413 4.699828820640164 C 5.521576121100264 4.694117262909087 5.5593567071962715 4.686444061416429 5.596666688554935 4.676839804067516 C 5.629709484854855 4.668821836434551 5.662439079294112 4.660052184335994 5.695262634291568 4.651000650562841 C 5.73473144371053 4.645833364196544 5.769462604664991 4.622381417558065 5.789003951187933 4.587702554522897 C 5.781079944113165 4.545608224449822 5.770838243269491 4.503138052143952 5.765451171266092 4.458538107185576 C 5.7577352285272365 4.428588474715514 5.770532037328691 4.397117992633216 5.796959278448766 4.38105196685761 C 5.813590297249959 4.373033999224644 5.838677766289045 4.369432177827022 5.845348965921161 4.35649694098165 C 5.859581618400021 4.323059616751843 5.870980477343181 4.288485871795569 5.879425328361268 4.2531403269629395 L 5.776976999738482 4.167886780490537 L 5.826400253351064 4.1162397936672495 C 5.835608388054551 4.114423222875406 5.852020165553279 4.1162397936672495 5.853304293181996 4.109975756453993 C 5.874539379334932 4.052879057255174 5.893769973579625 3.9952812350792923 5.913720932103843 3.9374015312288146 C 5.930183413939776 3.9459464877747923 5.947321194465063 3.9531221477135587 5.964960756508271 3.9588558586842133 C 6.004643432254239 3.9686590769229575 6.026410961570301 3.9494598028643306 6.027945650687549 3.907177551674858 C 6.030539983788371 3.8834334658739644 6.020903163526645 3.8599960584565243 6.002357058671402 3.844944341961169 C 6.002357058671402 3.7731271553111987 6.002357058671402 3.7731271553111987 6.057919068752975 3.7558070924165485 L 6.168823847613657 3.7643261830265753 C 6.182032244817883 3.731142488093178 6.193397899127801 3.6972546448379386 6.202868889867698 3.662817459985775 C 6.204234471894859 3.6563849791131227 6.204234471894859 3.6497374649391396 6.202868889867698 3.6433049840664857 C 6.20151743585248 3.636883472449605 6.19886316065641 3.63080742079595 6.195070163537196 3.6254524780087087 C 6.191252634218854 3.620137076256523 6.18636670809175 3.615677868568467 6.180725518318843 3.6123606402330055 C 6.175210498531499 3.608969771215118 6.169041545513505 3.6067818207502587 6.1626224507725365 3.605940002089419 Z" fill="#ffffff" transform="matrix(1,0,0,1,0,0)" fill-rule="nonzero"></path><path d=" M 6.230493293978155 3.8580988201090047 C 6.224763627449702 3.856974406408422 6.218854167621183 3.857156400642271 6.213204551269573 3.8586312632721316 C 6.201731461669619 3.8616649773192973 6.1922452615524115 3.8697236424674095 6.187396717950961 3.880555393518524 C 6.184957834753007 3.8859087634288993 6.183758751925366 3.8917435861169816 6.183888857111537 3.897624894924645 C 6.182751106118037 3.9071855494035876 6.185585925229816 3.9167942935873894 6.1917310405425035 3.9242063209202263 C 6.197876155855191 3.9316183482530636 6.20679328965476 3.936184406617436 6.216399210248332 3.936837767879621 C 6.2280131715111775 3.93917534659498 6.240059585789631 3.9360974589276627 6.24912880468759 3.9284752781999264 C 6.258231403187436 3.920808018080185 6.2634155827083635 3.9094625963791767 6.263254208603481 3.897562254552512 C 6.263920116096669 3.887997912891851 6.260880948851414 3.8785439719776456 6.254766438179519 3.8711593376986415 C 6.248674951710317 3.8638231554736877 6.239971751373401 3.8591402721956314 6.2304932939781565 3.8580988201090047 Z" fill="#ffffff" transform="matrix(1,0,0,1,0,0)" fill-rule="nonzero"></path><path d=" M 6.207159755358779 3.457137798088543 C 6.211262699733462 3.457137798088543 6.219969711459887 3.4429497538005203 6.218435022342639 3.439066050728302 C 6.215889631817429 3.4298687326129067 6.20988524064208 3.4220125198601146 6.2016787227971815 3.4171419204819093 C 6.193539313408564 3.4123254314324267 6.183841483271802 3.410875813717893 6.174649402221986 3.4131016164793593 C 6.171830585476021 3.4167347580630474 6.166192951984092 3.4211195841123256 6.166944636449681 3.4239697210443567 C 6.168279459308938 3.433550803325173 6.1731643519137585 3.442281011847748 6.180631557760645 3.4484307863621186 C 6.188042391388484 3.4546062762352863 6.197530759415729 3.457720522175751 6.207159755358779 3.4571377980885427 Z" fill="#ffffff" transform="matrix(1,0,0,1,0,0)" fill-rule="nonzero"></path><path d=" M 2.3973608202402508 4.432051647399865 C 2.4272717475046335 4.432051647399865 2.4621678293130795 4.428811296946223 2.5020490656655894 4.4223305960389405 C 2.541930302018099 4.415849895131657 2.583057827006625 4.402140720135482 2.625431640631167 4.381203071050415 C 2.6678054542557086 4.360265421965347 2.709431494698641 4.330603752428168 2.7503097619599637 4.292218062438876 C 2.7911880292212863 4.253832372449586 2.8278289151201546 4.202983796100136 2.860232419656569 4.139672333390527 C 2.8926359241929833 4.076360870680917 2.918807985549318 3.9985924597935227 2.938748603725573 3.9063671007283434 C 2.9586892219018277 3.8141417416631644 2.9686595309899553 3.7042190839665587 2.9686595309899553 3.576599127638527 L 2.9686595309899553 2.671793577890959 C 2.9686595309899553 2.543176590654115 2.9581907064474215 2.433253932957509 2.9372530573623536 2.3420256048011425 C 2.916315408277286 2.2507972766447764 2.888398542830529 2.174025896666195 2.853502461022083 2.111711464865398 C 2.818606379213637 2.049397033064601 2.7784758851339237 1.999794745351167 2.7331109787829435 1.9629046017250955 C 2.6877460724319637 1.926014458099024 2.6406363619905613 1.8978483349250639 2.5917818474587366 1.8784062322032153 C 2.542927332926912 1.8589641294813668 2.494571333849494 1.8462519853940043 2.446713850226482 1.8402697999411277 C 2.39885636660347 1.8342876144882512 2.354488491161303 1.831296521761813 2.31361022389998 1.831296521761813 C 2.209919009383454 1.831296521761813 2.1224295471351358 1.8455042122123944 2.0511418371550247 1.8739195931135577 C 1.979854127174913 1.902334974014721 1.9220263344637736 1.9412191794584182 1.8776584590216063 1.9905722094446494 C 1.8332905835794393 2.03992523943088 1.8013855944974313 2.0975037744148164 1.7819434917755828 2.163307814396458 C 1.762501389053734 2.229111854378099 1.7527803376928097 2.2989040179949916 1.7527803376928097 2.3726843052471347 C 1.7527803376928097 2.427521005231836 1.756020688146451 2.4781203238540828 1.762501389053734 2.5244822611138753 C 1.768982089961017 2.5708441983736683 1.7777061104131284 2.6219420324503218 1.7886734504100688 2.6777757633438357 L 2.0982515475964267 2.6777757633438357 L 2.0982515475964267 2.556636507923087 C 2.0982515475964267 2.2764708225467047 2.1735273812117892 2.1363879798585135 2.3240790484425142 2.1363879798585135 C 2.364957315703837 2.1363879798585135 2.4003519129666895 2.1433671962202028 2.4302628402310718 2.1573256289435814 C 2.460173767495454 2.1712840616669595 2.485099540215773 2.1949635457512624 2.5050401583920276 2.2283640811964895 C 2.524980776568283 2.2617646166417162 2.539686982473271 2.3058832343566804 2.549158776106992 2.3607199343413816 C 2.558630569740713 2.415556634326083 2.5633664665575733 2.483853251579756 2.5633664665575733 2.565609786102401 L 2.5633664665575733 3.723162671234001 C 2.5633664665575733 3.802925143939021 2.558630569740713 3.8692276993750685 2.549158776106992 3.922070337542144 C 2.539686982473271 3.97491297570922 2.525230034295486 4.017286789333761 2.5057879315736376 4.04919177841577 C 2.4863458288517886 4.081096767497778 2.4619185715858762 4.1037792206732675 2.4325061597759 4.1172391379422395 C 2.403093747965924 4.1306990552112115 2.367948408430275 4.137429013845698 2.327070141168952 4.137429013845698 C 2.2841978120900044 4.137429013845698 2.2473076684639324 4.126212416121554 2.2163997102907373 4.1037792206732675 C 2.1854917521175423 4.08134602522498 2.1600674639428172 4.0506873247789885 2.140126845766562 4.011803119335291 C 2.120186227590307 3.9729189138915944 2.1054800216853193 3.927055492086208 2.0960082280515984 3.8742128539191323 C 2.086536434417877 3.821370215752057 2.0818005376010165 3.7640409384953237 2.0818005376010165 3.7022250221489337 L 2.0818005376010165 3.3687181831510693 L 2.2807082039091595 3.3687181831510693 L 2.2807082039091595 3.114475301403819 L 1.7049228540697978 3.114475301403819 L 1.7049228540697978 4.408122905588359 L 1.9621568285434867 4.408122905588359 L 2.0040321267136223 4.165844394746861 C 2.052886641245447 4.260562331084072 2.1089696298661638 4.328609690610542 2.172281092575773 4.369986473326271 C 2.2355925552853826 4.411363256042 2.3106191311735422 4.432051647399865 2.3973608202402508 4.432051647399865" fill="NA" transform="matrix(1,0,0,1,0,0)" fill-rule="nonzero"></path><path d=" M 3.8659873489214283 4.432051647399865 C 3.8360764216570455 4.432051647399865 3.8011803398485995 4.428811296946223 3.7612991034960896 4.4223305960389405 C 3.72141786714358 4.415849895131657 3.680290342155054 4.402140720135482 3.637916528530512 4.381203071050415 C 3.5955427149059704 4.360265421965347 3.553916674463038 4.330603752428168 3.5130384072017153 4.292218062438876 C 3.4721601399403927 4.253832372449586 3.4355192540415245 4.202983796100136 3.40311574950511 4.139672333390527 C 3.3707122449686957 4.076360870680917 3.344540183612361 3.9985924597935227 3.324599565436106 3.9063671007283434 C 3.3046589472598513 3.8141417416631644 3.2946886381717237 3.7042190839665587 3.2946886381717237 3.576599127638527 L 3.2946886381717237 2.671793577890959 C 3.2946886381717237 2.543176590654115 3.3051574627142575 2.433253932957509 3.3260951117993254 2.3420256048011425 C 3.347032760884393 2.2507972766447764 3.37494962633115 2.174025896666195 3.409845708139596 2.111711464865398 C 3.444741789948042 2.049397033064601 3.4848722840277553 1.999794745351167 3.5302371903787355 1.9629046017250955 C 3.5756020967297153 1.926014458099024 3.6227118071711177 1.8978483349250639 3.6715663217029424 1.8784062322032153 C 3.720420836234767 1.8589641294813668 3.768776835312185 1.8462519853940043 3.816634318935197 1.8402697999411277 C 3.864491802558209 1.8342876144882512 3.908859678000376 1.831296521761813 3.949737945261699 1.831296521761813 C 4.053429159778225 1.831296521761813 4.140918622026543 1.8455042122123944 4.212206332006654 1.8739195931135577 C 4.283494041986766 1.902334974014721 4.341321834697905 1.9412191794584182 4.385689710140072 1.9905722094446494 C 4.43005758558224 2.03992523943088 4.4619625746642475 2.0975037744148164 4.481404677386096 2.163307814396458 C 4.5008467801079455 2.229111854378099 4.510567831468869 2.2989040179949916 4.510567831468869 2.3726843052471347 C 4.510567831468869 2.427521005231836 4.507327481015228 2.4781203238540828 4.5008467801079455 2.5244822611138753 C 4.494366079200662 2.5708441983736683 4.48564205874855 2.6219420324503218 4.4746747187516105 2.6777757633438357 L 4.165096621565253 2.6777757633438357 L 4.165096621565253 2.556636507923087 C 4.165096621565253 2.2764708225467047 4.08982078794989 2.1363879798585135 3.939269120719165 2.1363879798585135 C 3.898390853457842 2.1363879798585135 3.8629962561949895 2.1433671962202028 3.8330853289306073 2.1573256289435814 C 3.803174401666225 2.1712840616669595 3.778248628945906 2.1949635457512624 3.7583080107696514 2.2283640811964895 C 3.7383673925933962 2.2617646166417162 3.723661186688408 2.3058832343566804 3.714189393054687 2.3607199343413816 C 3.7047175994209662 2.415556634326083 3.6999817026041057 2.483853251579756 3.6999817026041057 2.565609786102401 L 3.6999817026041057 3.723162671234001 C 3.6999817026041057 3.802925143939021 3.7047175994209662 3.8692276993750685 3.714189393054687 3.922070337542144 C 3.723661186688408 3.97491297570922 3.738118134866193 4.017286789333761 3.7575602375880415 4.04919177841577 C 3.7770023403098905 4.081096767497778 3.801429597575803 4.1037792206732675 3.830842009385779 4.1172391379422395 C 3.860254421195755 4.1306990552112115 3.895399760731404 4.137429013845698 3.936278027992727 4.137429013845698 C 3.9791503570716746 4.137429013845698 4.016040500697747 4.126212416121554 4.046948458870942 4.1037792206732675 C 4.077856417044137 4.08134602522498 4.103280705218862 4.0506873247789885 4.123221323395117 4.011803119335291 C 4.143161941571372 3.9729189138915944 4.15786814747636 3.927055492086208 4.167339941110081 3.8742128539191323 C 4.1768117347438025 3.821370215752057 4.181547631560663 3.7640409384953237 4.181547631560663 3.7022250221489337 L 4.181547631560663 3.3687181831510693 L 3.9826399652525195 3.3687181831510693 L 3.9826399652525195 3.114475301403819 L 4.558425315091881 3.114475301403819 L 4.558425315091881 4.408122905588359 L 4.3011913406181925 4.408122905588359 L 4.259316042448057 4.165844394746861 C 4.210461527916232 4.260562331084072 4.154378539295515 4.328609690610542 4.091067076585905 4.369986473326271 C 4.027755613876296 4.411363256042 3.952729037988137 4.432051647399865 3.8659873489214283 4.432051647399865" fill="NA" transform="matrix(1,0,0,1,0,0)" fill-rule="nonzero"></path></mask><clipPath id="SvgjsClipPath1005"><path d=" M -1.0325978082247995 -1.4006071006452956 h 0.59715 v 0.59715 h -0.59715 Z"></path></clipPath><clipPath id="SvgjsClipPath1006"><path d=" M 6.69879597738648 -1.4006071006452963 h 0.59715 v 0.59715 h -0.59715 Z"></path></clipPath></defs></svg>